<?xml version="1.0" encoding="UTF-8" standalone="no"?>
<svg
   xmlns:dc="http://purl.org/dc/elements/1.1/"
   xmlns:cc="http://creativecommons.org/ns#"
   xmlns:rdf="http://www.w3.org/1999/02/22-rdf-syntax-ns#"
   xmlns:svg="http://www.w3.org/2000/svg"
   xmlns="http://www.w3.org/2000/svg"
   id="svg2"
   version="1.1"
   xml:space="preserve"
   width="469.68002"
   height="91.200569"
   viewBox="0 0 469.68002 91.200571"><metadata
     id="metadata8"><rdf:RDF><cc:Work
         rdf:about=""><dc:format>image/svg+xml</dc:format><dc:type
           rdf:resource="http://purl.org/dc/dcmitype/StillImage" /><dc:title></dc:title></cc:Work></rdf:RDF></metadata><defs
     id="defs6" /><g
     transform="translate(-148.05847,-480.18996)"
     id="g4153"><g
       id="g4145"><path
         d="m 178.85315,513.45717 c -1.66931,-0.55542 -3.0603,-0.74097 -4.82239,-0.74097 -7.23511,0 -11.40991,4.44946 -11.40991,12.23511 0,7.60254 3.98926,11.77247 11.31714,11.77247 1.57592,0 2.87536,-0.0928 4.91516,-0.36988 0,0 0,-22.89673 0,-22.89673 z m 0,-33.26721 c 0,0 14.28466,0 14.28466,0 0,0 0,66.08093 0,66.08093 -7.32787,1.38916 -12.70751,1.9458 -18.55102,1.9458 -17.43835,0 -26.52832,-7.87719 -26.52832,-22.98584 0,-14.55322 9.64722,-24.0094 24.58008,-24.0094 2.31872,0 4.08142,0.18555 6.2146,0.74158 0,0 0,-21.77307 0,-21.77307 z"
         style="fill:#346841;fill-opacity:1;fill-rule:nonzero;stroke:none"
         id="path24" /><path
         d="m 201.57837,480.26504 c 0,0 14.28344,0 14.28344,0 0,0 0,14.65087 0,14.65087 0,0 -14.28344,0 -14.28344,0 0,0 0,-14.65087 0,-14.65087 z m 14.28344,21.97631 c 0,0 0,33.09082 0,33.09082 0,11.40259 -0.83496,16.87012 -3.33862,21.59791 -2.31933,4.54223 -5.38085,7.41576 -11.68762,10.56762 0,0 -13.26416,-6.30371 -13.26416,-6.30371 6.30738,-2.96631 9.36829,-5.56153 11.31591,-9.54834 2.04103,-4.07837 2.69105,-8.80494 2.69105,-21.22559 0,0 0,-28.17871 0,-28.17871 0,0 14.28344,0 14.28344,0 z"
         style="fill:#346841;fill-opacity:1;fill-rule:nonzero;stroke:none"
         id="path26" /><path
         d="m 246.84387,528.19594 c -9.46106,0.92774 -12.52197,2.40967 -12.52197,6.11816 0,2.77955 1.7627,4.07715 5.65796,4.07715 2.1344,0 4.08141,-0.18433 6.86401,-0.64819 0,0 0,-9.54712 0,-9.54712 0,0 0,0 0,0 z m -22.35351,-22.70996 c 6.30798,-2.96631 12.33643,-4.26453 18.92211,-4.26453 7.32789,0 12.15028,1.94641 14.28467,5.7489 1.20483,2.13135 1.57593,4.91211 1.57593,10.84472 0,0 0,29.01247 0,29.01247 -6.40076,0.92529 -14.46961,1.5747 -20.40588,1.5747 -11.96473,0 -17.34558,-4.17237 -17.34558,-13.44117 0,-10.00976 7.14171,-14.64477 24.67285,-16.12792 0,0 0,-3.15186 0,-3.15186 0,-2.59521 -1.29822,-3.52173 -4.91577,-3.52173 -5.28687,0 -11.22315,1.48315 -16.78894,4.35669 0,0 0,-11.03028 0,-11.03028 0,0 6.1e-4,0 6.1e-4,0 z"
         style="fill:#346841;fill-opacity:1;fill-rule:nonzero;stroke:none"
         id="path28" /><path
         d="m 266.23047,504.46609 c 8.43994,-2.22474 15.39734,-3.24464 22.44629,-3.24464 7.32788,0 12.61474,1.66809 15.76965,4.91394 2.96814,3.05786 3.89465,6.39405 3.89465,13.53272 0,0 0,27.99194 0,27.99194 0,0 -14.28405,0 -14.28405,0 0,0 0,-27.4353 0,-27.4353 0,-5.46752 -1.85486,-7.50855 -6.95619,-7.50855 -1.94762,0 -3.71032,0.18555 -6.5863,1.01929 0,0 0,33.92456 0,33.92456 0,0 -14.28405,0 -14.28405,0 0,0 0,-43.19396 0,-43.19396 0,0 0,0 0,0 z"
         style="fill:#346841;fill-opacity:1;fill-rule:nonzero;stroke:none"
         id="path30" /><path
         d="m 342.27722,512.80898 c -0.18493,0 -0.37048,0 -0.46265,0 0,0 -1.02051,0 -1.02051,0 -2.78258,-0.0928 -6.02844,0.64819 -8.25561,2.03857 -3.4314,1.94702 -5.1947,5.46998 -5.1947,10.47485 0,7.13745 3.526,11.21582 9.83276,11.21582 1.94764,0 3.52479,-0.37108 5.37964,-0.92651 0,0 0,-1.02172 0,-1.02172 0,0 0,-3.8916 0,-3.8916 0,-1.66749 -0.0921,-3.52295 -0.0921,-5.46754 0,0 -0.0921,-6.58203 -0.0921,-6.58203 0,0 -0.094,-4.72656 -0.094,-4.72656 0,0 0,-1.11328 0,-1.11328 0,0 -6.1e-4,0 -6.1e-4,0 z m -28.38318,42.63793 c 5.00977,2.59644 10.0177,3.80005 15.30518,3.80005 9.36707,0 13.35572,-3.80005 13.35572,-12.8833 0,-0.0928 0,-0.18555 0,-0.27831 -2.78199,1.39037 -5.56519,1.9458 -9.27492,1.9458 -12.52196,0 -20.49987,-8.2483 -20.49987,-21.31836 0,-16.22193 11.7804,-25.39857 32.65015,-25.39857 6.12182,0 11.78039,0.64759 18.64501,2.03858 0,0 -4.89196,10.29724 -4.89196,10.29724 -3.8031,-0.74096 -0.30456,-0.0989 -3.1781,-0.37719 0,0 0,1.48437 0,1.48437 0,0 0.18432,6.02294 0.18432,6.02294 0,0 0.0928,7.78688 0.0928,7.78688 0.0927,1.9458 0.0927,3.89281 0.18555,5.83983 0,1.76148 0,2.594 0,3.89283 0,12.23511 -1.0199,17.98096 -4.08081,22.70996 -4.45251,6.9519 -12.15149,10.38087 -23.09631,10.38087 -5.56519,0 -10.38758,-0.83375 -15.39734,-2.78077 0,0 0,-13.16285 0,-13.16285 0,0 6e-4,0 6e-4,0 z"
         style="fill:#346841;fill-opacity:1;fill-rule:nonzero;stroke:none"
         id="path32" /><path
         d="m 385.97046,537.37196 c 5.47241,0 8.7207,-4.54223 8.7207,-12.42065 0,-7.78565 -3.1543,-12.42065 -8.62549,-12.42065 -5.65917,0 -8.90747,4.54223 -8.90747,12.42065 10e-4,7.87964 3.2483,12.42065 8.81226,12.42065 z M 386.25,501.0359 c 14.28466,0 23.00292,8.99231 23.00292,23.54554 0,14.92431 -9.08935,24.28466 -23.55956,24.28466 -14.28467,0 -23.09692,-8.99047 -23.09692,-23.4497 6.1e-4,-15.01831 9.0918,-24.3805 23.65356,-24.3805 z"
         style="fill:#346841;fill-opacity:1;fill-rule:nonzero;stroke:none"
         id="path34" /></g><g
       id="g4222"
       transform="matrix(1.2046994,0,0,1.4239256,-96.35178,-232.30346)"><path
         d="m 554.0625,504.68764 c 0,0 7.39503,-2.96875 13.8794,-3.20313 0,0 8.59375,-0.15625 11.01563,0.23438 0,0 4.60937,0.70312 7.34375,2.42187 0,0 2.96875,2.1875 4.45312,4.45313 0,0 1.32813,2.5 1.79688,5 0,0 0.54687,4.14062 -0.15625,6.17187 0,0 -1.40625,5.15625 -3.90625,6.95313 0,0 -5.3125,3.59375 -10,3.75 0,0 -6.95313,0.70312 -8.4375,0.46875 0,0 0,15.85937 0,15.85937 0,0 -10.54688,0 -10.54688,0 0,0 0,-35.9375 0,-35.9375 0,0 -2.44751,0.54688 -2.83814,0.70313 0,0 -2.60376,-6.875 -2.60376,-6.875 z"
         style="fill:#3cbda8;fill-opacity:1;fill-rule:nonzero;stroke:none"
         id="path14" /><path
         d="m 570.1294,510.07826 c 0,0 0,12.42188 0,12.42188 0,0 4.29688,0.85937 7.57813,-0.15625 0,0 3.51562,-0.70313 4.29687,-3.82813 0,0 1.32813,-4.29687 -1.64062,-7.10937 0,0 -1.32813,-1.5625 -6.64063,-1.71875 0,0 -3.59375,0.39062 -3.59375,0.39062 z"
         style="fill:#ffffff;fill-opacity:1;fill-rule:nonzero;stroke:none"
         id="path16" /><path
         d="m 475.9375,501.09389 c 0,0 -11.14624,0.26062 -14.375,2.86499 0,0 2.08374,6.77063 2.08374,6.77063 0,0 2.68066,-0.33875 2.68066,-0.33875 0,0 -0.28443,36.58937 -0.28443,36.58937 0,0 10.10377,0 10.10377,0 0,0 0.10375,-20 0.10375,-20 0,0 18.54247,0 18.54247,0 0,0 0,20 0,20 0,0 10.10377,0 10.10377,0 0,0 0,-45.20875 0,-45.20875 0,0 -10.10377,0 -10.10377,0 0,0 0,17.39624 0,17.39624 0,0 -18.85497,0 -18.85497,0 0,0 0,-18.07373 0,-18.07373 z"
         style="fill:#3cbda8;fill-opacity:1;fill-rule:nonzero;stroke:none"
         id="path18" /><path
         d="m 552.61596,524.33608 c 0,12.96508 -9.2688,23.47656 -20.70312,23.47656 -11.43433,0 -20.70313,-10.51148 -20.70313,-23.47656 0,-12.96509 9.2688,-23.47657 20.70313,-23.47657 11.43432,0 20.70312,10.51148 20.70312,23.47657 z"
         style="fill:#3cbda8;fill-opacity:1;fill-rule:nonzero;stroke:none"
         id="path20" /><path
         d="m 440.80322,500.83328 c 0,0 3.4375,-0.625 8.125,0.41686 0,0 3.85498,0.9375 5.83374,1.875 0,0 3.125,1.77064 3.125,1.77064 0,0 -2.39624,8.1256 -2.39624,8.1256 0,0 -7.1875,-4.27247 -10.3125,-3.85498 0,0 -7.39623,10e-4 -8.4375,2.91748 0,0 -0.72876,2.91503 1.14624,4.27002 0,0 5.9375,3.64746 9.375,4.79248 0,0 6.35254,3.64502 7.39503,6.04126 0,0 2.91747,5.52124 1.66747,9.6875 0,0 -1.35497,6.97876 -7.60497,9.47876 0,0 -9.0625,2.81373 -15.20753,1.04248 0,0 -6.14624,-1.35498 -9.58374,-3.22998 0,0 1.77124,-9.16626 1.77124,-9.16626 0,0 5.52003,4.06372 11.14503,4.27124 0,0 3.33251,0.62378 7.5,-1.35498 0,0 2.8125,-2.70752 0.625,-5.83252 0,0 -2.70753,-2.39502 -8.95753,-5.3125 0,0 -8.125,-4.375 -9.0625,-8.33374 0,0 -2.08374,-5 0.41626,-10 0,0 1.04127,-2.91626 5.72877,-5.52063 0,0 2.14844,-1.23718 5.97656,-1.86218 0,0 1.73217,-0.22155 1.73217,-0.22155 z"
         style="fill:#3cbda8;fill-opacity:1;fill-rule:nonzero;stroke:none"
         id="path22" /><path
         d="m 543.7915,523.7361 c 0,7.57874 -5.23071,13.72254 -11.68213,13.72254 -6.45141,0 -11.68212,-6.1438 -11.68212,-13.72254 0,-7.57935 5.23071,-13.72314 11.68212,-13.72314 6.45142,0 11.68213,6.14379 11.68213,13.72314 z"
         style="fill:#ffffff;fill-opacity:1;fill-rule:nonzero;stroke:none"
         id="path36" /></g></g></svg>