<?xml version="1.0" encoding="utf-8"?>
<!-- Generator: Adobe Illustrator 14.0.0, SVG Export Plug-In . SVG Version: 6.00 Build 43363)  -->
<!DOCTYPE svg PUBLIC "-//W3C//DTD SVG 1.1//EN" "http://www.w3.org/Graphics/SVG/1.1/DTD/svg11.dtd">
<svg version="1.1" id="Layer_1" xmlns="http://www.w3.org/2000/svg" xmlns:xlink="http://www.w3.org/1999/xlink" x="0px" y="0px"
	 width="453.54px" height="85.04px" viewBox="0 0 453.54 85.04" enable-background="new 0 0 453.54 85.04" xml:space="preserve">
<g>
	<path fill="#43B68B" d="M245.27,46.11c6.24,4.24,10.48,5.681,16.24,5.681c5.6,0,8.801-2,8.801-5.44c0-3.2-1.439-4.56-9.6-8.64
		c-6.641-3.28-9.121-4.96-11.441-7.521c-2.32-2.48-3.52-5.92-3.52-9.76c0-10.4,8.24-16.96,21.439-16.96
		c5.762,0,11.041,1.2,15.762,3.6v12.24c-4.961-3.52-9.281-4.96-14.801-4.96c-5.84,0-9.201,1.92-9.201,5.28
		c0,2.24,1.602,3.92,5.201,5.6l4.801,2.32c5.76,2.64,8.479,4.4,10.959,6.88c2.881,2.88,4.4,6.8,4.4,11.281
		c0,10.72-8.48,17.359-22,17.359c-6.08,0-11.761-1.279-17.041-3.84V46.11z"/>
	<path fill="#43B68B" d="M289.59,4.51h13.359v22.32h22.801V4.51h13.361v57.121H325.75V38.11h-22.801v23.521H289.59V4.51z"/>
	<path fill="#43B68B" d="M373.67,3.39c17.279,0,28.16,11.44,28.16,29.44c0,18.48-11.201,30.081-29.041,30.081
		c-17.52,0-28.4-11.2-28.4-29.121C344.389,15.23,355.748,3.39,373.67,3.39z M373.109,51.631c9.201,0,14.721-6.961,14.721-18.721
		c0-11.68-5.361-18.641-14.48-18.641c-9.361,0-14.961,7.041-14.961,18.721C358.389,44.75,363.83,51.631,373.109,51.631z"/>
	<path fill="#43B68B" d="M407.428,4.91l1.279-0.08c6.08-0.4,10.961-0.64,15.441-0.64c8.799,0,14.08,1.2,18.32,4.24
		c4.48,3.2,7.039,8.48,7.039,14.72c0,6.4-2.879,11.92-8,14.88c-4.24,2.48-9.359,3.6-16.561,3.6c-1.119,0-2.24-0.08-4.16-0.16v20.161
		h-13.359V4.91z M420.787,30.91c1.361,0.24,2.24,0.24,3.281,0.24c8.721,0,12.24-2.4,12.24-8.161c0-5.6-3.52-8.32-10.561-8.32
		c-1.359,0-2.561,0-4.961,0.4V30.91z"/>
</g>
<g>
	<path fill="#082E20" d="M31.092,3.071h12.401v57.404c-6.361,1.207-11.033,1.69-16.107,1.69c-15.138,0-23.032-6.847-23.032-19.973
		c0-12.643,8.378-20.857,21.342-20.857c2.013,0,3.543,0.16,5.396,0.646V3.071z M31.092,31.966c-1.45-0.481-2.657-0.642-4.188-0.642
		c-6.282,0-9.906,3.865-9.906,10.63c0,6.604,3.463,10.226,9.826,10.226c1.369,0,2.495-0.08,4.268-0.32V31.966z"/>
	<path fill="#082E20" d="M63.223,22.225v28.749c0,9.904-0.725,14.656-2.9,18.762c-2.012,3.946-4.67,6.443-10.146,9.181
		l-11.516-5.477c5.477-2.576,8.134-4.831,9.824-8.293c1.772-3.543,2.335-7.65,2.335-18.443V22.225H63.223z M50.82,3.137h12.403
		v12.726H50.82V3.137z"/>
	<path fill="#082E20" d="M70.712,25.042c5.478-2.576,10.711-3.706,16.431-3.706c6.36,0,10.548,1.692,12.4,4.994
		c1.047,1.852,1.369,4.268,1.369,9.422v25.206c-5.558,0.806-12.562,1.37-17.715,1.37c-10.389,0-15.061-3.625-15.061-11.678
		c0-8.696,6.2-12.723,21.421-14.012v-2.737c0-2.255-1.126-3.062-4.268-3.062c-4.59,0-9.744,1.29-14.578,3.785V25.042z
		 M90.121,44.771c-8.212,0.806-10.872,2.096-10.872,5.313c0,2.419,1.53,3.546,4.913,3.546c1.853,0,3.543-0.16,5.959-0.564V44.771z"
		/>
	<path fill="#082E20" d="M106.952,24.155c7.329-1.931,13.368-2.819,19.489-2.819c6.362,0,10.951,1.45,13.69,4.269
		c2.576,2.657,3.382,5.557,3.382,11.758v24.319h-12.402V37.847c0-4.751-1.611-6.523-6.038-6.523c-1.692,0-3.221,0.161-5.719,0.884
		v29.475h-12.402V24.155z"/>
	<path fill="#082E20" d="M148.334,68.446c4.351,2.256,8.698,3.303,13.288,3.303c8.135,0,11.597-3.303,11.597-11.194
		c0-0.079,0-0.159,0-0.241c-2.415,1.209-4.83,1.69-8.052,1.69c-10.872,0-17.798-7.166-17.798-18.521
		c0-14.095,10.227-22.066,28.347-22.066c5.314,0,10.226,0.565,16.187,1.774l-4.246,8.945c-3.303-0.646-0.264-0.088-2.759-0.33v1.291
		l0.16,5.233l0.081,6.765c0.081,1.692,0.081,3.385,0.162,5.073c0,1.531,0,2.256,0,3.385c0,10.63-0.886,15.623-3.545,19.729
		c-3.865,6.04-10.549,9.02-20.05,9.02c-4.833,0-9.02-0.727-13.371-2.416V68.446z M172.978,31.406c-0.163,0-0.322,0-0.404,0h-0.885
		c-2.417-0.082-5.234,0.56-7.166,1.769c-2.982,1.692-4.51,4.753-4.51,9.099c0,6.204,3.059,9.746,8.536,9.746
		c1.689,0,3.06-0.322,4.67-0.805v-0.888v-3.38c0-1.45-0.08-3.062-0.08-4.754l-0.08-5.715l-0.081-4.107V31.406z"/>
	<path fill="#082E20" d="M211.155,21.177c12.399,0,19.971,7.812,19.971,20.455c0,12.966-7.892,21.099-20.456,21.099
		c-12.401,0-20.052-7.811-20.052-20.376C190.618,29.308,198.511,21.177,211.155,21.177z M210.912,52.742
		c4.751,0,7.569-3.945,7.569-10.788c0-6.766-2.737-10.792-7.487-10.792c-4.911,0-7.732,3.947-7.732,10.792
		C203.262,48.797,206.083,52.742,210.912,52.742z"/>
</g>
</svg>
