<?xml version="1.0" encoding="UTF-8" standalone="no"?>
<!-- Generator: Adobe Illustrator 14.0.0, SVG Export Plug-In . SVG Version: 6.00 Build 43363)  -->

<svg
   xmlns:dc="http://purl.org/dc/elements/1.1/"
   xmlns:cc="http://creativecommons.org/ns#"
   xmlns:rdf="http://www.w3.org/1999/02/22-rdf-syntax-ns#"
   xmlns:svg="http://www.w3.org/2000/svg"
   xmlns="http://www.w3.org/2000/svg"
   xmlns:sodipodi="http://sodipodi.sourceforge.net/DTD/sodipodi-0.dtd"
   xmlns:inkscape="http://www.inkscape.org/namespaces/inkscape"
   version="1.1"
   id="Layer_1"
   x="0px"
   y="0px"
   width="453.54px"
   height="85.04px"
   viewBox="0 0 453.54 85.04"
   enable-background="new 0 0 453.54 85.04"
   xml:space="preserve"
   inkscape:version="0.91 r13725"
   sodipodi:docname="django-shop-logo.svg"><metadata
     id="metadata31"><rdf:RDF><cc:Work
         rdf:about=""><dc:format>image/svg+xml</dc:format><dc:type
           rdf:resource="http://purl.org/dc/dcmitype/StillImage" /></cc:Work></rdf:RDF></metadata><defs
     id="defs29" /><sodipodi:namedview
     pagecolor="#ffffff"
     bordercolor="#666666"
     borderopacity="1"
     objecttolerance="10"
     gridtolerance="10"
     guidetolerance="10"
     inkscape:pageopacity="0"
     inkscape:pageshadow="2"
     inkscape:window-width="2091"
     inkscape:window-height="1115"
     id="namedview27"
     showgrid="false"
     inkscape:zoom="0.79816553"
     inkscape:cx="152.22406"
     inkscape:cy="42.52"
     inkscape:window-x="1440"
     inkscape:window-y="1"
     inkscape:window-maximized="0"
     inkscape:current-layer="Layer_1" /><g
     id="g4195"
     inkscape:export-xdpi="44.479092"
     inkscape:export-ydpi="44.479092"><g
       id="g4189"><path
         id="path5"
         d="m 245.27,46.11 c 6.24,4.24 10.48,5.681 16.24,5.681 5.6,0 8.801,-2 8.801,-5.44 0,-3.2 -1.439,-4.56 -9.6,-8.64 -6.641,-3.28 -9.121,-4.96 -11.441,-7.521 -2.32,-2.48 -3.52,-5.92 -3.52,-9.76 0,-10.4 8.24,-16.96 21.439,-16.96 5.762,0 11.041,1.2 15.762,3.6 l 0,12.24 c -4.961,-3.52 -9.281,-4.96 -14.801,-4.96 -5.84,0 -9.201,1.92 -9.201,5.28 0,2.24 1.602,3.92 5.201,5.6 l 4.801,2.32 c 5.76,2.64 8.479,4.4 10.959,6.88 2.881,2.88 4.4,6.8 4.4,11.281 0,10.72 -8.48,17.359 -22,17.359 -6.08,0 -11.761,-1.279 -17.041,-3.84 l 0,-13.12 z"
         inkscape:connector-curvature="0"
         style="fill:#43b68b" /><path
         id="path7"
         d="m 289.59,4.51 13.359,0 0,22.32 22.801,0 0,-22.32 13.361,0 0,57.121 -13.361,0 0,-23.521 -22.801,0 0,23.521 -13.359,0 0,-57.121 z"
         inkscape:connector-curvature="0"
         style="fill:#43b68b" /><path
         id="path9"
         d="m 373.67,3.39 c 17.279,0 28.16,11.44 28.16,29.44 0,18.48 -11.201,30.081 -29.041,30.081 -17.52,0 -28.4,-11.2 -28.4,-29.121 0,-18.56 11.359,-30.4 29.281,-30.4 z m -0.561,48.241 c 9.201,0 14.721,-6.961 14.721,-18.721 0,-11.68 -5.361,-18.641 -14.48,-18.641 -9.361,0 -14.961,7.041 -14.961,18.721 0,11.76 5.441,18.641 14.72,18.641 z"
         inkscape:connector-curvature="0"
         style="fill:#43b68b" /><path
         id="path11"
         d="m 407.428,4.91 1.279,-0.08 c 6.08,-0.4 10.961,-0.64 15.441,-0.64 8.799,0 14.08,1.2 18.32,4.24 4.48,3.2 7.039,8.48 7.039,14.72 0,6.4 -2.879,11.92 -8,14.88 -4.24,2.48 -9.359,3.6 -16.561,3.6 -1.119,0 -2.24,-0.08 -4.16,-0.16 l 0,20.161 -13.359,0 0,-56.721 z m 13.359,26 c 1.361,0.24 2.24,0.24 3.281,0.24 8.721,0 12.24,-2.4 12.24,-8.161 0,-5.6 -3.52,-8.32 -10.561,-8.32 -1.359,0 -2.561,0 -4.961,0.4 l 0,15.841 z"
         inkscape:connector-curvature="0"
         style="fill:#43b68b" /></g><g
       id="g13"><path
         id="path15"
         d="m 31.092,3.071 12.401,0 0,57.404 c -6.361,1.207 -11.033,1.69 -16.107,1.69 -15.138,0 -23.032,-6.847 -23.032,-19.973 0,-12.643 8.378,-20.857 21.342,-20.857 2.013,0 3.543,0.16 5.396,0.646 l 0,-18.91 z m 0,28.895 c -1.45,-0.481 -2.657,-0.642 -4.188,-0.642 -6.282,0 -9.906,3.865 -9.906,10.63 0,6.604 3.463,10.226 9.826,10.226 1.369,0 2.495,-0.08 4.268,-0.32 l 0,-19.894 z"
         inkscape:connector-curvature="0"
         style="fill:#082e20" /><path
         id="path17"
         d="m 63.223,22.225 0,28.749 c 0,9.904 -0.725,14.656 -2.9,18.762 -2.012,3.946 -4.67,6.443 -10.146,9.181 L 38.661,73.44 c 5.477,-2.576 8.134,-4.831 9.824,-8.293 1.772,-3.543 2.335,-7.65 2.335,-18.443 l 0,-24.479 12.403,0 z M 50.82,3.137 l 12.403,0 0,12.726 -12.403,0 0,-12.726 z"
         inkscape:connector-curvature="0"
         style="fill:#082e20" /><path
         id="path19"
         d="m 70.712,25.042 c 5.478,-2.576 10.711,-3.706 16.431,-3.706 6.36,0 10.548,1.692 12.4,4.994 1.047,1.852 1.369,4.268 1.369,9.422 l 0,25.206 c -5.558,0.806 -12.562,1.37 -17.715,1.37 -10.389,0 -15.061,-3.625 -15.061,-11.678 0,-8.696 6.2,-12.723 21.421,-14.012 l 0,-2.737 c 0,-2.255 -1.126,-3.062 -4.268,-3.062 -4.59,0 -9.744,1.29 -14.578,3.785 l 0,-9.582 z m 19.409,19.729 c -8.212,0.806 -10.872,2.096 -10.872,5.313 0,2.419 1.53,3.546 4.913,3.546 1.853,0 3.543,-0.16 5.959,-0.564 l 0,-8.295 z"
         inkscape:connector-curvature="0"
         style="fill:#082e20" /><path
         id="path21"
         d="m 106.952,24.155 c 7.329,-1.931 13.368,-2.819 19.489,-2.819 6.362,0 10.951,1.45 13.69,4.269 2.576,2.657 3.382,5.557 3.382,11.758 l 0,24.319 -12.402,0 0,-23.835 c 0,-4.751 -1.611,-6.523 -6.038,-6.523 -1.692,0 -3.221,0.161 -5.719,0.884 l 0,29.475 -12.402,0 0,-37.528 z"
         inkscape:connector-curvature="0"
         style="fill:#082e20" /><path
         id="path23"
         d="m 148.334,68.446 c 4.351,2.256 8.698,3.303 13.288,3.303 8.135,0 11.597,-3.303 11.597,-11.194 0,-0.079 0,-0.159 0,-0.241 -2.415,1.209 -4.83,1.69 -8.052,1.69 -10.872,0 -17.798,-7.166 -17.798,-18.521 0,-14.095 10.227,-22.066 28.347,-22.066 5.314,0 10.226,0.565 16.187,1.774 l -4.246,8.945 c -3.303,-0.646 -0.264,-0.088 -2.759,-0.33 l 0,1.291 0.16,5.233 0.081,6.765 c 0.081,1.692 0.081,3.385 0.162,5.073 0,1.531 0,2.256 0,3.385 0,10.63 -0.886,15.623 -3.545,19.729 -3.865,6.04 -10.549,9.02 -20.05,9.02 -4.833,0 -9.02,-0.727 -13.371,-2.416 l 0,-11.44 z m 24.644,-37.04 c -0.163,0 -0.322,0 -0.404,0 l -0.885,0 c -2.417,-0.082 -5.234,0.56 -7.166,1.769 -2.982,1.692 -4.51,4.753 -4.51,9.099 0,6.204 3.059,9.746 8.536,9.746 1.689,0 3.06,-0.322 4.67,-0.805 l 0,-0.888 0,-3.38 c 0,-1.45 -0.08,-3.062 -0.08,-4.754 l -0.08,-5.715 -0.081,-4.107 0,-0.965 z"
         inkscape:connector-curvature="0"
         style="fill:#082e20" /><path
         id="path25"
         d="m 211.155,21.177 c 12.399,0 19.971,7.812 19.971,20.455 0,12.966 -7.892,21.099 -20.456,21.099 -12.401,0 -20.052,-7.811 -20.052,-20.376 0,-13.047 7.893,-21.178 20.537,-21.178 z m -0.243,31.565 c 4.751,0 7.569,-3.945 7.569,-10.788 0,-6.766 -2.737,-10.792 -7.487,-10.792 -4.911,0 -7.732,3.947 -7.732,10.792 0,6.843 2.821,10.788 7.65,10.788 z"
         inkscape:connector-curvature="0"
         style="fill:#082e20" /></g></g></svg>